<mxfile host="app.diagrams.net" modified="2024-02-13T10:31:24.464Z" agent="Mozilla/5.0 (Windows NT 10.0; Win64; x64) AppleWebKit/537.36 (KHTML, like Gecko) Chrome/121.0.0.0 Safari/537.36 Edg/121.0.0.0" version="22.1.15" etag="V128ubIWiYKZ94cwCWQB" type="github">
  <diagram name="Page-1" id="kU1RzSAubM-uUq-VUpBr">
    <mxGraphModel>
      <root>
        <mxCell id="0" />
        <mxCell id="1" parent="0" />
      </root>
    </mxGraphModel>
  </diagram>
</mxfile>
